<?xml version="1.0" encoding="iso-8859-1"?>
<!-- Generator: Adobe Illustrator 17.1.0, SVG Export Plug-In . SVG Version: 6.00 Build 0)  -->
<!DOCTYPE svg PUBLIC "-//W3C//DTD SVG 1.1//EN" "http://www.w3.org/Graphics/SVG/1.1/DTD/svg11.dtd">
<svg version="1.1" id="Capa_1" xmlns="http://www.w3.org/2000/svg" xmlns:xlink="http://www.w3.org/1999/xlink" x="0px" y="0px"
	 viewBox="0 0 262.944 262.944" style="enable-background:new 0 0 262.944 262.944;" xml:space="preserve">
<path d="M216.446,49h-46.974V3.731L216.446,49z M181.502,189.135c-4.816-4.817-11.22-7.47-18.031-7.47s-13.215,2.652-18.031,7.47
	c-9.942,9.941-9.942,26.119,0,36.063c4.816,4.815,11.22,7.469,18.031,7.469s13.215-2.652,18.03-7.469
	c4.816-4.817,7.47-11.221,7.47-18.032S186.319,193.95,181.502,189.135z M196.974,262.944l-147.86-0.479
	c-4.133-0.014-7.642-3.367-7.642-7.5V7.5c0-4.143,3.69-7.5,7.833-7.5h105.167v56.5c0,4.143,3.69,7.5,7.833,7.5h59.167v179.226
	l-20.634-20.802c1.944-4.782,3.05-9.941,3.05-15.259c0-10.818-4.171-20.988-11.821-28.637c-7.649-7.65-17.799-11.863-28.617-11.863
	s-20.978,4.213-28.628,11.862c-15.79,15.791-15.785,41.484,0.005,57.276c7.65,7.649,17.823,11.862,28.641,11.862
	c5.318,0,10.478-1.023,15.26-2.967L196.974,262.944z M73.305,101.5c0,4.143,3.357,7.5,7.5,7.5h99c4.143,0,7.5-3.357,7.5-7.5
	s-3.357-7.5-7.5-7.5h-99C76.662,94,73.305,97.357,73.305,101.5z M80.805,140h99c4.143,0,7.5-3.357,7.5-7.5s-3.357-7.5-7.5-7.5h-99
	c-4.143,0-7.5,3.357-7.5,7.5S76.662,140,80.805,140z"/>
<g>
</g>
<g>
</g>
<g>
</g>
<g>
</g>
<g>
</g>
<g>
</g>
<g>
</g>
<g>
</g>
<g>
</g>
<g>
</g>
<g>
</g>
<g>
</g>
<g>
</g>
<g>
</g>
<g>
</g>
</svg>
