<?xml version="1.0" encoding="iso-8859-1"?>
<!-- Generator: Adobe Illustrator 18.0.0, SVG Export Plug-In . SVG Version: 6.00 Build 0)  -->
<!DOCTYPE svg PUBLIC "-//W3C//DTD SVG 1.1//EN" "http://www.w3.org/Graphics/SVG/1.1/DTD/svg11.dtd">
<svg version="1.1" id="Capa_1" xmlns="http://www.w3.org/2000/svg" xmlns:xlink="http://www.w3.org/1999/xlink" x="0px" y="0px"
	 viewBox="0 0 414.062 414.062" style="enable-background:new 0 0 414.062 414.062;" xml:space="preserve">
<g>
	<path d="M235.018,317.239v-16.617h18.548c-7.428-3.969-14.309-9.058-20.433-15.182c-4.261-4.26-8.007-8.895-11.238-13.818H29V93.57
		h291v48.453c10.532,3.289,20.359,8.589,29,15.723V69.57c0-2.761-2.239-5-5-5H5c-2.761,0-5,2.239-5,5v226.053c0,2.761,2.239,5,5,5
		h108.982v16.617l-21.531,23.907c-1.322,1.468-1.656,3.575-0.853,5.379c0.803,1.804,2.593,2.967,4.568,2.967h156.667
		c0.007,0,0.013,0,0.02,0c2.761,0,5-2.239,5-5c0-1.426-0.597-2.712-1.554-3.622L235.018,317.239z"/>
	<path d="M410.501,323.551l-58.92-58.92c8.235-11.704,12.69-25.617,12.69-40.223c0-18.725-7.292-36.33-20.534-49.571
		c-13.241-13.241-30.846-20.534-49.571-20.534c-18.726,0-36.33,7.292-49.571,20.534c-13.241,13.241-20.533,30.846-20.533,49.571
		c0,18.725,7.292,36.33,20.533,49.571c13.241,13.242,30.846,20.534,49.571,20.534c14.605,0,28.519-4.455,40.222-12.689l58.92,58.92
		c2.373,2.374,5.485,3.56,8.596,3.56c3.111,0,6.223-1.187,8.597-3.56C415.249,335.996,415.249,328.298,410.501,323.551z
		 M329.411,259.652c-9.414,9.415-21.931,14.599-35.244,14.599c-13.313,0-25.83-5.185-35.245-14.599
		c-9.414-9.414-14.599-21.931-14.599-35.244c0-13.314,5.185-25.83,14.599-35.244c9.415-9.414,21.931-14.599,35.245-14.599
		c13.313,0,25.83,5.185,35.244,14.599c9.414,9.415,14.599,21.931,14.599,35.244C344.01,237.721,338.825,250.238,329.411,259.652z"/>
	<path d="M181.5,198.364v26.333c0,4.418,3.582,8,8,8c4.418,0,8-3.582,8-8v-26.333c0-4.419-3.582-8-8-8
		C185.082,190.364,181.5,193.946,181.5,198.364z"/>
	<path d="M151.5,165.364v59.333c0,4.418,3.582,8,8,8c4.418,0,8-3.582,8-8v-59.333c0-4.419-3.582-8-8-8
		C155.082,157.364,151.5,160.946,151.5,165.364z"/>
	<path d="M121.5,198.364v26.333c0,4.418,3.582,8,8,8c4.419,0,8-3.582,8-8v-26.333c0-4.419-3.581-8-8-8
		C125.082,190.364,121.5,193.946,121.5,198.364z"/>
	<path d="M91.5,165.364v59.333c0,4.418,3.582,8,8,8c4.418,0,8-3.582,8-8v-59.333c0-4.419-3.581-8-8-8
		C95.082,157.364,91.5,160.946,91.5,165.364z"/>
	<path d="M61.5,144.364v80.333c0,4.418,3.582,8,8,8c4.418,0,8-3.582,8-8v-80.333c0-4.419-3.582-8-8-8
		C65.082,136.364,61.5,139.946,61.5,144.364z"/>
</g>
<g>
</g>
<g>
</g>
<g>
</g>
<g>
</g>
<g>
</g>
<g>
</g>
<g>
</g>
<g>
</g>
<g>
</g>
<g>
</g>
<g>
</g>
<g>
</g>
<g>
</g>
<g>
</g>
<g>
</g>
</svg>
